<svg width="22" height="23" viewBox="0 0 22 23" fill="none" xmlns="http://www.w3.org/2000/svg">
<path d="M11.8442 14.9492V18.8828L11.8452 18.8837L18.4575 14.4785V14.4775L15.5034 12.5038L11.8442 14.9492ZM3.54443 14.4794L3.54248 14.4785L10.1548 18.8837L10.1558 18.8828V14.9501V14.9492L6.49756 12.5038H6.49658L3.54248 14.4775L3.54443 14.4794ZM17.0229 11.4902L19.1343 12.9023L19.1353 12.9013V10.0781H19.1343L17.0229 11.4902ZM2.86475 12.9042L2.86572 12.9052L4.97705 11.4931V11.4921L2.86572 10.08V10.081L2.86475 10.082V12.9042ZM8.01416 11.4931L10.9995 13.4872H11.0005L13.9858 11.4902L11.0005 9.49603V9.49506L10.9995 9.49603L9.52881 10.4794L8.01416 11.4921V11.4931ZM3.54443 8.5058L3.54248 8.50482L6.49658 10.4794H6.49756L10.1558 8.03314V4.09955H10.1548L3.54248 8.50385L3.54443 8.5058ZM11.8442 4.09955L11.8452 4.10052H11.8472V8.03314L15.5054 10.4794H15.5063L18.4595 8.50482V8.50385L18.4585 8.50287L11.8481 4.10052V4.09955L11.8472 4.09857H11.8452V4.09955H11.8442ZM1.25049 8.164C1.25356 8.15694 1.25659 8.1496 1.26025 8.14349C1.27004 8.12392 1.27977 8.10396 1.28955 8.08685L1.31396 8.04779C1.33359 8.0159 1.35391 7.98685 1.37842 7.9599C1.39063 7.94281 1.40474 7.92772 1.41943 7.91302C1.42557 7.90812 1.43152 7.90289 1.43701 7.8974C1.44252 7.89189 1.44753 7.88567 1.45361 7.8808L1.50049 7.84174L1.53955 7.81244C1.54206 7.81118 1.54492 7.80939 1.54736 7.80756L1.5542 7.80267H1.55518L10.5337 1.82416C10.6029 1.77794 10.6785 1.74257 10.7573 1.71869C10.8361 1.6948 10.9182 1.68256 11.0015 1.68256C11.0847 1.68256 11.1668 1.69478 11.2456 1.71869C11.3243 1.74257 11.4001 1.77797 11.4692 1.82416L20.4429 7.79779C20.4453 7.79899 20.4482 7.80082 20.4507 7.80267C20.453 7.80439 20.4552 7.80633 20.4575 7.80756L20.4976 7.83685L20.5435 7.87592C20.5557 7.88569 20.5679 7.89602 20.5776 7.90814C20.5924 7.92287 20.6074 7.94029 20.6196 7.95502C20.6417 7.98446 20.6645 8.01347 20.6841 8.04291C20.6938 8.05512 20.7012 8.06974 20.7085 8.08197C20.7183 8.10158 20.728 8.11901 20.7378 8.13861C20.7452 8.15334 20.7524 8.16587 20.7573 8.1806C20.7671 8.20023 20.7724 8.2225 20.7798 8.24213H20.7788L20.7915 8.28412C20.7987 8.30835 20.8013 8.33011 20.8062 8.35443L20.814 8.39154L20.8286 8.50189V14.4853C20.8286 14.522 20.8257 14.559 20.8208 14.5956L20.814 14.6328C20.8091 14.6573 20.8067 14.682 20.7993 14.704C20.7969 14.7188 20.7915 14.7338 20.7866 14.746C20.783 14.7557 20.7795 14.766 20.7759 14.7763C20.7722 14.7867 20.7678 14.7977 20.7642 14.8076C20.7606 14.8148 20.7574 14.8222 20.7544 14.829C20.7514 14.836 20.7482 14.8425 20.7446 14.8486C20.7348 14.8682 20.7252 14.8856 20.7153 14.9052C20.7117 14.9125 20.7079 14.9193 20.7036 14.9257C20.6994 14.9321 20.6946 14.9382 20.6909 14.9443L20.6538 14.996L20.6245 15.0331L20.5835 15.079C20.5773 15.084 20.5714 15.0901 20.5659 15.0956C20.5604 15.1012 20.5544 15.1064 20.5483 15.1113C20.5338 15.1234 20.5194 15.1382 20.5024 15.1503C20.4877 15.1601 20.4747 15.1698 20.4624 15.1796C20.46 15.1809 20.458 15.1837 20.4556 15.1855C20.4531 15.1873 20.4501 15.1882 20.4478 15.1894V15.1904L11.4712 21.1689L11.3608 21.2314C11.323 21.2492 11.2841 21.2635 11.2446 21.2753C11.1653 21.299 11.0836 21.3115 11.0024 21.3115C10.9608 21.3115 10.9194 21.3077 10.8784 21.3017C10.7965 21.2896 10.7167 21.2657 10.6421 21.2304L10.5337 21.1689L1.55713 15.1904L1.55029 15.1855L1.50342 15.1503C1.48869 15.1381 1.47127 15.126 1.45654 15.1113C1.4444 15.1016 1.43213 15.0921 1.42236 15.08V15.079L1.38037 15.0331L1.35107 14.996C1.33789 14.9807 1.32843 14.9655 1.31787 14.9501C1.31661 14.9483 1.31527 14.9461 1.31396 14.9443C1.30428 14.9321 1.2969 14.9175 1.28955 14.9052C1.27733 14.8856 1.27007 14.8682 1.26025 14.8486C1.25299 14.8341 1.24561 14.8221 1.24072 14.8076L1.21826 14.746L1.2124 14.7245C1.2106 14.7179 1.20895 14.7113 1.20654 14.704L1.19189 14.6328L1.18408 14.5956C1.17922 14.559 1.17725 14.5219 1.17725 14.4853V8.50677C1.17725 8.47001 1.17918 8.43319 1.18408 8.39642L1.19189 8.35931C1.19678 8.3349 1.20166 8.31 1.20654 8.28802L1.21826 8.24701L1.22998 8.21576C1.23361 8.20548 1.2371 8.19516 1.24072 8.18549L1.25049 8.164Z" fill="#2188FF" stroke="#2188FF" stroke-width="0.00111607"/>
</svg>
